<?xml version="1.0" encoding="UTF-8" standalone="no"?>
<!-- Created with Inkscape (http://www.inkscape.org/) -->

<svg
   xmlns:dc="http://purl.org/dc/elements/1.1/"
   xmlns:cc="http://creativecommons.org/ns#"
   xmlns:rdf="http://www.w3.org/1999/02/22-rdf-syntax-ns#"
   xmlns:svg="http://www.w3.org/2000/svg"
   xmlns="http://www.w3.org/2000/svg"
   xmlns:xlink="http://www.w3.org/1999/xlink"
   xmlns:sodipodi="http://sodipodi.sourceforge.net/DTD/sodipodi-0.dtd"
   xmlns:inkscape="http://www.inkscape.org/namespaces/inkscape"
   width="71.437492mm"
   height="103.1875mm"
   viewBox="0 0 71.437493 103.1875"
   version="1.1"
   id="svg8"
   inkscape:version="0.92.4 (5da689c313, 2019-01-14)"
   sodipodi:docname="background.svg">
  <defs
     id="defs2">
    <linearGradient
       y2="66.611679"
       x2="-473.40808"
       y1="-251.43906"
       x1="-473.40808"
       gradientUnits="userSpaceOnUse"
       id="linearGradient887"
       xlink:href="#linearGradient1360"
       inkscape:collect="always"
       gradientTransform="matrix(0.07556192,0,0,0.07556194,100.87769,176.00936)" />
    <linearGradient
       inkscape:collect="always"
       id="linearGradient1360">
      <stop
         style="stop-color:#00ff00;stop-opacity:1;"
         offset="0"
         id="stop1356" />
      <stop
         style="stop-color:#ffff00;stop-opacity:1"
         offset="1"
         id="stop1358" />
    </linearGradient>
  </defs>
  <sodipodi:namedview
     id="base"
     pagecolor="#ffffff"
     bordercolor="#666666"
     borderopacity="1.0"
     inkscape:pageopacity="0.0"
     inkscape:pageshadow="2"
     inkscape:zoom="1.046875"
     inkscape:cx="-19.58209"
     inkscape:cy="205.37317"
     inkscape:document-units="mm"
     inkscape:current-layer="layer1"
     showgrid="false"
     inkscape:window-width="1366"
     inkscape:window-height="705"
     inkscape:window-x="-8"
     inkscape:window-y="-8"
     inkscape:window-maximized="1" />
  <metadata
     id="metadata5">
    <rdf:RDF>
      <cc:Work
         rdf:about="">
        <dc:format>image/svg+xml</dc:format>
        <dc:type
           rdf:resource="http://purl.org/dc/dcmitype/StillImage" />
        <dc:title></dc:title>
      </cc:Work>
    </rdf:RDF>
  </metadata>
  <g
     inkscape:label="Layer 1"
     inkscape:groupmode="layer"
     id="layer1"
     transform="translate(-12.605224,-135.51391)">
    <g
       id="g47"
       transform="matrix(1.8677838,0,0,1.8677838,-72.420377,-124.168)"
       style="opacity:0.5"
       inkscape:export-xdpi="96"
       inkscape:export-ydpi="96">
      <path
         d="m 65.174561,151.24114 -2.661853,3.16668 -2.419851,0.87965 -2.663307,-0.87965 v 2.94183 c 1.700384,-0.30489 5.802549,-0.99208 8.153975,-0.97635 2.120909,0.0142 5.801194,0.68203 7.336031,0.97894 v -2.94442 l -2.663307,1.14354 -2.661838,-1.14354 z"
         style="fill:#ffff00;fill-opacity:1;stroke:none;stroke-width:0.03748756;stroke-miterlimit:4;stroke-dasharray:none"
         id="rect2082-2-3-3-8-7"
         inkscape:connector-curvature="0" />
      <path
         d="m 65.106101,157.24045 c -3.528023,0.12393 -9.60062,1.73442 -9.60062,1.73442 v 2.08076 l 1.702545,-0.98265 7.898075,4.55841 z m 3.572115,0.33588 0.376906,0.21754 v 6.07775 l 5.651585,-0.19185 v -3.59631 -1.10859 c 0,0 -3.126707,-0.89104 -6.028491,-1.39854 z m -2.255824,0.22908 -2.91e-4,9.11675 -1.316291,-0.75976 -7.897954,-4.55842 -1.702425,0.98256 v 1.51951 l 1.702425,-0.98257 6.58169,3.79868 -6.581696,3.79858 1.316366,0.75973 6.581653,-3.79866 6.581708,3.79866 -6.581708,3.79868 1.316306,0.75973 7.898075,-4.55841 -6.581709,-3.79866 v -1.51933 0 -2.3e-4 h 0.0024 l -0.0015,1.5e-4 6.967057,-0.21165 v -1.30777 h -6.967876 v -6.07789 z m -9.214366,6.82598 -1.702545,0.98262 v 4.55837 l 5.651584,-3.26176 z m 11.847096,2.27923 2.632643,1.51943 1.31629,0.75968 1.702652,0.98269 v -3.2618 z m -3.949021,2.27911 -6.581708,3.79865 -3.018912,-1.74237 v 4.35762 c 0,0 5.905341,5.54292 9.60062,5.54292 3.695277,0 9.600606,-5.54292 9.600606,-5.54292 v -2.83818 l -8.284315,4.78135 -3.949039,-2.27919 6.581769,-3.79868 z"
         style="fill:url(#linearGradient887);fill-opacity:1;stroke:#000000;stroke-width:0.02079003;stroke-linecap:butt;stroke-linejoin:miter;stroke-miterlimit:4;stroke-dasharray:none;stroke-opacity:1"
         id="path2005-2-0-5-1-3-7"
         inkscape:connector-curvature="0" />
    </g>
    <rect
       style="opacity:1;fill:#6c5353;fill-opacity:0;stroke:#ffff00;stroke-width:1.27321172;stroke-miterlimit:4;stroke-dasharray:none;stroke-opacity:1"
       id="rect853-8"
       width="70.164284"
       height="101.91429"
       x="13.24183"
       y="136.15051"
       rx="0"
       inkscape:export-filename="C:\Users\18763\Downloads\Myfolder\test\AI\KToolBox\Files\Web Architect\icon128.png"
       inkscape:export-xdpi="96"
       inkscape:export-ydpi="96" />
  </g>
</svg>
